<svg  viewBox="0 0 341 511" fill="none" xmlns="http://www.w3.org/2000/svg">
<path d="M139 0H202V49H139V0Z" fill="white"/>
<path d="M0.155914 340.446L44.1028 296.499L78.5581 330.954L34.6112 374.901L0.155914 340.446Z" fill="white"/>
<path d="M305.954 375.409L262 331.455L296.455 297L340.409 340.954L305.954 375.409Z" fill="white"/>
<path d="M201.644 391.631V31.1204C201.644 13.9069 187.748 0 170.549 0C153.349 0 139.453 13.9069 139.453 31.1204V391.631L68.129 320.346C55.9824 308.19 36.2564 308.19 24.1099 320.346C11.9634 332.502 11.9634 352.245 24.1099 364.401L148.49 488.883C160.637 501.039 180.363 501.039 192.51 488.883L316.89 364.401C329.037 352.245 329.037 332.502 316.89 320.346C304.744 308.19 285.018 308.19 272.871 320.346L201.644 391.631Z" fill="white"/>
<path d="M133.581 473.967L179.548 428L216.459 464.912L170.492 510.879L133.581 473.967Z" fill="white"/>
</svg>
